<svg width="512" height="512" viewBox="0 0 512 512" fill="none" xmlns="http://www.w3.org/2000/svg">
<rect width="512" height="512" fill="#FDD567"/>
<path d="M210.293 480L170.67 409.684H93.7535L48 327.649L87.6235 257.333L48 187.018L93.7069 104.982H170.623L210.247 34.6666H301.684L341.307 104.982H418.223L464 187.018L424.377 257.333L464 327.649L418.293 409.684H341.377L301.753 480H210.293ZM341.354 245.614H404.891L437.289 187.018L404.938 128.421H341.377L308.396 187.018L341.354 245.614ZM224.814 315.93H287.186L320.143 257.333L287.186 198.737H224.814L191.857 257.333L224.814 315.93ZM224.814 175.298H287.186L320.726 116.116L287.792 58.1052H224.208L191.297 116.116L224.814 175.298ZM107.668 245.614H170.646L203.627 187.018L170.646 128.421H107.692L74.7342 187.018L107.668 245.614ZM107.668 386.246H170.646L203.627 327.649L170.67 269.053H107.132L74.7342 327.649L107.668 386.246ZM224.208 456.561H287.792L320.726 398.551L287.209 339.368H224.814L191.274 398.551L224.208 456.561ZM341.354 386.246H404.308L437.266 327.649L404.332 269.053H341.354L308.396 327.649L341.354 386.246Z" fill="black"/>
</svg>
