<svg width="128" height="52" viewBox="0 0 128 52" fill="none" xmlns="http://www.w3.org/2000/svg">
<rect x="0.506924" y="2.26526" width="126.095" height="48.4464" rx="4.5" transform="rotate(-0.798992 0.506924 2.26526)" stroke="#FDD567"/>
<path d="M111.706 5.89637C111.157 5.97725 110.715 6.31384 110.472 6.76544L110.466 6.77778L110.457 6.79443C110.454 6.79949 110.452 6.80504 110.449 6.81109L109.273 9.11344C108.729 9.38988 108.27 9.80869 107.945 10.3253C107.846 10.3457 107.75 10.3722 107.657 10.4048L107.65 10.3653C107.582 9.95846 107.296 9.63395 106.903 9.51364L106.628 9.41537C106.604 9.40836 106.579 9.40608 106.555 9.40865C106.53 9.41122 106.506 9.4186 106.485 9.43037C106.463 9.44213 106.444 9.45805 106.428 9.47722C106.413 9.49638 106.401 9.51842 106.394 9.54207C106.387 9.56572 106.385 9.59052 106.387 9.61505C106.39 9.63958 106.397 9.66337 106.409 9.68505C106.421 9.70673 106.437 9.72588 106.456 9.74141C106.475 9.75694 106.497 9.76854 106.521 9.77555L106.792 9.87444C107.049 9.95301 107.236 10.1648 107.281 10.4274L107.304 10.5653C106.903 10.7942 106.582 11.1408 106.385 11.5581C106.188 11.9754 106.124 12.4433 106.201 12.8983C106.402 14.0939 107.509 14.9164 108.697 14.759C109.143 15.1148 109.672 15.3516 110.235 15.4474L110.246 15.5154C110.278 15.704 110.234 15.8977 110.123 16.0532L109.923 16.334C109.834 16.4592 109.864 16.6367 109.989 16.726C110.054 16.7721 110.129 16.7862 110.199 16.7744C110.269 16.7626 110.335 16.7249 110.381 16.6601L110.581 16.3793C110.763 16.1223 110.845 15.8077 110.811 15.4946C110.963 15.494 111.114 15.4832 111.265 15.4622L112.678 15.2246C112.753 15.5139 112.925 15.7664 113.174 15.9437L113.454 16.1436C113.519 16.1898 113.594 16.2039 113.664 16.1921C113.734 16.1803 113.8 16.1426 113.847 16.0778C113.936 15.9525 113.906 15.775 113.781 15.6858L113.5 15.4858C113.377 15.3983 113.285 15.274 113.237 15.1307L113.457 15.0938C113.703 15.0523 113.944 14.9802 114.173 14.8791C114.241 15.0058 114.348 15.108 114.477 15.1712C114.607 15.2344 114.752 15.2555 114.895 15.2316L115.438 15.1403C115.59 15.1148 115.694 14.9642 115.668 14.8126C115.643 14.661 115.496 14.5564 115.344 14.5819L114.801 14.6732C114.773 14.6778 114.745 14.6735 114.721 14.6608C114.696 14.6481 114.677 14.6278 114.665 14.6029C115.135 14.2778 115.503 13.8249 115.725 13.2977L116.718 11.3001L117.031 11.1765C117.134 11.1326 117.108 10.981 116.997 10.9768L116.662 10.9621L115.07 9.3991C114.628 8.90628 114.035 8.57349 113.384 8.45258C113.61 8.09195 113.69 7.65923 113.609 7.24172C113.438 6.36159 112.592 5.76226 111.706 5.896M113.628 14.2832C113.531 14.3132 113.432 14.3367 113.332 14.3534L112.406 14.509L111.538 9.33899L112.464 9.18338C112.564 9.16643 112.665 9.15635 112.766 9.15313L113.628 14.2832ZM115.243 12.582L114.848 10.2325L115.899 11.2641L115.243 12.582ZM109.096 14.1165C109.152 14.0147 109.172 13.8971 109.152 13.7827L108.701 11.0941C108.68 10.974 108.62 10.8708 108.536 10.7963C108.808 10.3326 109.215 9.96354 109.703 9.73885L110.543 14.7321C110.009 14.6794 109.504 14.4646 109.096 14.1165ZM107.904 12.984C107.806 13.0005 107.705 12.9774 107.624 12.9197C107.543 12.862 107.489 12.7745 107.472 12.6764C107.456 12.5783 107.479 12.4777 107.537 12.3967C107.594 12.3157 107.682 12.2609 107.78 12.2444C107.878 12.2279 107.979 12.2511 108.06 12.3088C108.141 12.3665 108.195 12.454 108.212 12.5521C108.228 12.6502 108.205 12.7508 108.147 12.8318C108.09 12.9128 108.002 12.9676 107.904 12.984Z" fill="#FDD567"/>
<path d="M76.326 35.3612C76.8122 35.0933 77.3674 35.0941 77.8345 35.3063L77.8464 35.3128L77.8633 35.3208C77.8688 35.3231 77.8744 35.3258 77.8803 35.3289L80.2096 36.4504C80.8101 36.3413 81.4289 36.397 82.0002 36.6117C82.0914 36.5681 82.1838 36.5312 82.2775 36.5009L82.2588 36.4654C82.0671 36.1001 82.0989 35.6684 82.3389 35.3349L82.4984 35.0902C82.513 35.0703 82.5314 35.0535 82.5525 35.0407C82.5735 35.0279 82.5969 35.0194 82.6213 35.0157C82.6457 35.0119 82.6706 35.013 82.6946 35.0189C82.7185 35.0247 82.7411 35.0352 82.761 35.0498C82.7809 35.0644 82.7977 35.0828 82.8105 35.1039C82.8233 35.125 82.8318 35.1484 82.8355 35.1727C82.8393 35.1971 82.8382 35.222 82.8324 35.246C82.8265 35.2699 82.816 35.2925 82.8014 35.3124L82.6451 35.5553C82.4884 35.7731 82.4671 36.0553 82.5909 36.2911L82.6559 36.4149C83.1135 36.3546 83.5786 36.4364 83.9881 36.6494C84.3976 36.8623 84.7317 37.1961 84.9452 37.6054C85.5086 38.6788 85.1251 40.0033 84.0843 40.5967C83.9443 41.1499 83.6664 41.6586 83.2764 42.0753L83.3085 42.1364C83.3974 42.3057 83.5492 42.4335 83.7314 42.4903L84.0605 42.5929C84.2074 42.6386 84.291 42.798 84.2453 42.9448C84.2216 43.0208 84.1707 43.0771 84.1076 43.1102C84.0446 43.1434 83.9693 43.1532 83.8933 43.1296L83.5642 43.027C83.2638 42.9325 83.0084 42.7314 82.8461 42.4617C82.7249 42.553 82.5977 42.636 82.4653 42.7102L81.1963 43.3763C81.3114 43.6522 81.3275 43.9571 81.2366 44.2488L81.1341 44.5779C81.1104 44.6538 81.0595 44.7102 80.9964 44.7433C80.9334 44.7764 80.8581 44.7863 80.7821 44.7626C80.6353 44.7169 80.5516 44.5575 80.5974 44.4107L80.6999 44.0815C80.745 43.9374 80.7431 43.7827 80.6946 43.6397L80.497 43.7434C80.2755 43.8597 80.0404 43.9478 79.797 44.0057C79.8192 44.1481 79.7963 44.2937 79.7315 44.4224C79.6667 44.551 79.5633 44.6562 79.4357 44.7231L78.9477 44.9793C78.8115 45.0507 78.6376 44.9938 78.5662 44.8576C78.4947 44.7215 78.5483 44.5493 78.6845 44.4779L79.1726 44.2217C79.1971 44.2089 79.2167 44.1885 79.2286 44.1635C79.2405 44.1386 79.244 44.1104 79.2385 44.0834C78.667 44.1093 78.1001 43.9713 77.6046 43.6857L75.6048 42.6965L75.2813 42.7871C75.1728 42.8144 75.1013 42.6783 75.1872 42.6078L75.4455 42.393L75.7673 40.1853C75.821 39.5255 76.0914 38.902 76.5364 38.4119C76.1387 38.2612 75.813 37.9653 75.6249 37.5838C75.2283 36.7798 75.5392 35.7907 76.3258 35.3609M79.8704 43.2015C79.9656 43.1668 80.0584 43.1258 80.1481 43.0786L80.9795 42.6422L78.543 38.0003L77.7116 38.4367C77.621 38.4842 77.5348 38.5372 77.4527 38.5955L79.8704 43.2015ZM77.5549 42.8245L76.4476 40.715L76.2357 42.1718L77.5549 42.8245ZM83.3773 40.327C83.2713 40.2798 83.1843 40.198 83.1307 40.0951L81.8636 37.6812C81.807 37.5733 81.7926 37.4547 81.8144 37.3445C81.3175 37.1398 80.7698 37.0924 80.2452 37.2089L82.5984 41.6921C82.9914 41.3273 83.2632 40.8509 83.3773 40.327ZM83.6413 38.7039C83.7294 38.6577 83.7955 38.5784 83.8251 38.4834C83.8547 38.3885 83.8453 38.2857 83.7991 38.1976C83.7529 38.1095 83.6736 38.0434 83.5786 38.0139C83.4837 37.9843 83.3808 37.9936 83.2928 38.0398C83.2047 38.0861 83.1386 38.1654 83.109 38.2603C83.0795 38.3553 83.0888 38.4581 83.135 38.5462C83.1812 38.6342 83.2606 38.7003 83.3555 38.7299C83.4505 38.7595 83.5533 38.7501 83.6413 38.7039Z" fill="#FDD567"/>
<path d="M43.374 22.8354C43.5253 23.0142 43.6314 23.1584 43.6922 23.268C43.7531 23.3775 43.7839 23.4823 43.7846 23.5823C43.7855 23.7023 43.7066 23.8429 43.5478 24.0041C43.399 24.1652 43.2496 24.2463 43.0996 24.2475C42.8996 24.249 42.7394 24.2202 42.619 24.1611C42.4985 24.102 42.3978 24.0078 42.3168 23.8784C42.155 23.6396 41.9585 23.4361 41.7272 23.2678C41.4958 23.0896 41.1352 23.0023 40.6452 23.006C40.2252 23.0092 39.7459 23.1078 39.2074 23.3019C38.6788 23.4959 38.3006 23.7337 38.0727 24.0155C37.8746 24.267 37.7025 24.6483 37.5564 25.1594C37.4202 25.6704 37.354 26.1659 37.3576 26.6459C37.362 27.2259 37.491 27.76 37.7447 28.2481C38.0083 28.7261 38.3812 29.1083 38.8634 29.3946C39.3556 29.6809 39.9417 29.8215 40.6216 29.8164C40.9916 29.8136 41.3711 29.7407 41.76 29.5978C42.1589 29.4447 42.502 29.2021 42.7895 28.87L42.7745 28.8701C42.9531 28.6787 43.1774 28.582 43.4474 28.58C43.6074 28.5788 43.7579 28.6476 43.8989 28.7866C44.05 28.9254 44.1261 29.0649 44.1271 29.2049C44.1282 29.3549 44.1043 29.49 44.0552 29.6104C44.016 29.7207 43.937 29.8463 43.818 29.9872C43.4115 30.4503 42.9289 30.769 42.3702 30.9432C41.8115 31.1174 41.1422 31.2075 40.3622 31.2134C39.6722 31.2186 38.971 31.0589 38.2585 30.7342C37.556 30.4095 37.013 30.0136 36.6295 29.5465C36.4273 29.258 36.2292 28.8445 36.0351 28.306C35.8509 27.7574 35.7576 27.313 35.755 26.9731C35.7484 26.1031 35.8722 25.2771 36.1263 24.4952C36.3903 23.7032 36.7855 23.0702 37.312 22.5962C37.6596 22.2735 38.1627 22.0297 38.8215 21.8647C39.4803 21.6998 40.0846 21.6152 40.6346 21.611C41.3046 21.606 41.8303 21.697 42.2117 21.8841C42.6031 22.0612 42.9905 22.3782 43.374 22.8354ZM48.1078 22.8446C48.0827 23.4848 48.0723 24.0999 48.0768 24.6899C48.0814 25.2999 48.1282 26.1945 48.2171 27.3739C48.2284 27.5538 48.2512 27.9187 48.2853 28.4684C48.3194 29.0082 48.3382 29.503 48.3416 29.953C48.4415 29.9423 48.5464 29.9265 48.6562 29.9057C48.7761 29.8847 48.866 29.8741 48.926 29.8736C49.146 29.872 49.3214 29.9256 49.4522 30.0346C49.583 30.1437 49.6493 30.3132 49.6511 30.5432C49.6522 30.6931 49.5931 30.8086 49.4737 30.8895C49.3543 30.9704 49.1447 31.032 48.845 31.0743C48.5553 31.1064 48.1304 31.1247 47.5704 31.1289C46.9504 31.1336 46.4853 31.1171 46.175 31.0794C45.8647 31.0418 45.6492 30.9684 45.5283 30.8593C45.4074 30.7402 45.3461 30.5657 45.3444 30.3357C45.3431 30.1657 45.3972 30.0503 45.5068 29.9895C45.6163 29.9286 45.7711 29.8975 45.9711 29.8959L46.2862 29.9086L46.7814 29.9348L46.693 28.1654C46.6258 27.2059 46.5891 26.3262 46.5831 25.5262C46.5798 25.0962 46.5904 24.5061 46.6147 23.7559L46.6384 22.9307C46.2986 22.9533 46.0337 22.9653 45.8437 22.9667C45.6237 22.9684 45.4734 22.9295 45.3928 22.8501C45.3222 22.7706 45.286 22.6059 45.2841 22.3559C45.2819 22.0759 45.4706 21.8945 45.85 21.8116C46.2394 21.7287 46.829 21.6842 47.619 21.6783C48.229 21.6736 48.6841 21.6902 48.9844 21.7279C49.2947 21.7656 49.4504 21.8544 49.4515 21.9944C49.454 22.3344 49.3807 22.56 49.2316 22.6711C49.0923 22.7722 48.8177 22.8242 48.4077 22.8273L48.1078 22.8446ZM58.1891 30.8236C58.0578 30.6546 57.9464 30.4705 57.8549 30.2712C57.7634 30.0618 57.6665 29.8126 57.5643 29.5233C57.5439 29.4735 57.4828 29.3239 57.3809 29.0747C57.289 28.8254 57.1824 28.6112 57.061 28.4321C56.4317 28.5269 55.9171 28.5757 55.5171 28.5788C55.2971 28.5804 55.0521 28.5773 54.782 28.5693C54.5218 28.5513 54.3268 28.5428 54.1968 28.5437C53.6965 28.5075 53.2964 28.4905 52.9964 28.4928C52.8776 28.6537 52.7739 28.8245 52.6852 29.0052C52.6066 29.1858 52.5036 29.4566 52.3764 29.8175C52.2003 30.3389 52.0481 30.71 51.9198 30.931C51.8309 31.0817 51.6565 31.158 51.3965 31.16C51.1765 31.1616 50.9711 31.1182 50.7805 31.0296C50.5997 30.931 50.5087 30.7967 50.5074 30.6267C50.5845 30.2461 50.7065 29.8452 50.8733 29.4239C51.0501 28.9925 51.3008 28.4206 51.6254 27.7082L52.2143 26.2337C52.5379 25.3912 52.8325 24.6689 53.0979 24.0669C53.3734 23.4648 53.733 22.7521 54.1768 21.9287C54.2359 21.8083 54.3351 21.7075 54.4745 21.6265C54.6138 21.5354 54.7685 21.4892 54.9385 21.4879C55.1285 21.4865 55.2636 21.5005 55.3438 21.5299C55.434 21.5492 55.5043 21.5887 55.5547 21.6483C55.6051 21.6979 55.6809 21.8073 55.7822 21.9766C56.1262 22.504 56.4203 23.0468 56.6645 23.605C56.9188 24.1631 57.2396 24.9357 57.6271 25.9228L57.9481 26.7153C58.2335 27.4332 58.4781 28.0364 58.6818 28.5249C58.8954 29.0033 59.1287 29.4415 59.3817 29.8396C59.5437 30.0984 59.625 30.2778 59.6258 30.3778C59.6276 30.6178 59.554 30.8033 59.405 30.9345C59.2659 31.0555 59.0814 31.1169 58.8514 31.1187C58.5614 31.1208 58.3406 31.0225 58.1891 30.8236ZM56.6167 27.2054C56.4542 26.8666 56.2197 26.2784 55.9134 25.4407C55.5966 24.5431 55.2812 23.8304 54.9672 23.3028C54.7808 23.7842 54.5055 24.4063 54.1413 25.1691C53.8948 25.6409 53.615 26.3231 53.3017 27.2155C53.9423 27.2906 54.6326 27.3254 55.3726 27.3198C55.9026 27.3158 56.3173 27.2777 56.6167 27.2054ZM64.4442 30.2964C64.4417 29.9664 64.4589 29.6012 64.4959 29.2009C64.5324 28.7407 64.548 28.1605 64.5428 27.4605C64.5331 26.1806 64.4688 24.946 64.3498 23.7569C64.2842 23.0174 64.2502 22.4926 64.2479 22.1826C64.2463 21.9726 64.35 21.7968 64.5589 21.6553C64.7678 21.5037 64.9822 21.427 65.2022 21.4254C65.3422 21.4243 65.5122 21.433 65.7124 21.4515C65.9125 21.47 66.0576 21.4789 66.1476 21.4782C68.3975 21.4612 70.0571 22.0537 71.1262 23.2557C71.802 24.0306 72.1449 25.063 72.1546 26.353C72.1587 26.893 72.0628 27.4387 71.867 27.9902C71.6811 28.5316 71.4094 28.9737 71.052 29.3164C70.6648 29.6993 70.2972 30.0071 69.9489 30.2398C69.6106 30.4623 69.147 30.6508 68.5581 30.8053C67.9793 30.9597 67.2349 31.0403 66.3249 31.0472C65.7449 31.0516 65.2844 30.99 64.9435 30.8626C64.6125 30.7351 64.4461 30.5464 64.4442 30.2964ZM66.8846 29.6779C67.5546 29.6728 68.1686 29.5482 68.7268 29.304C69.2849 29.0498 69.7321 28.6764 70.0684 28.1838C70.4046 27.6813 70.57 27.07 70.5645 26.35C70.5592 25.64 70.4547 25.0508 70.2512 24.5823C70.0476 24.1038 69.6996 23.7165 69.2074 23.4202C68.8356 23.193 68.3794 23.0314 67.8387 22.9355C67.2978 22.8296 66.6474 22.7795 65.8875 22.7852C65.8882 22.8852 65.9 23.1152 65.9227 23.475C65.9452 23.8148 65.9574 24.0998 65.9591 24.3297L65.9766 24.6596C66.0445 25.6991 66.0807 26.5239 66.0853 27.1339C66.0926 28.0938 66.0439 28.9242 65.9392 29.6251C66.1794 29.6632 66.4946 29.6809 66.8846 29.6779ZM78.1142 21.3578C78.7542 21.353 79.3048 21.4288 79.766 21.5853C80.2372 21.7418 80.654 21.9836 81.0165 22.3109C81.6508 22.8761 82.0955 23.4978 82.3506 24.1759C82.6157 24.8439 82.7522 25.7029 82.7601 26.7529C82.7621 27.0129 82.7289 27.2581 82.6607 27.4886C82.5923 27.7092 82.4894 27.9799 82.3518 28.301L82.1604 28.7825C82.0233 29.1635 81.736 29.5207 81.2985 29.854C80.8609 30.1773 80.3679 30.436 79.8193 30.6302C79.2708 30.8243 78.7715 30.9231 78.3215 30.9265C77.4016 30.9335 76.5954 30.7896 75.9032 30.4948C75.2209 30.1899 74.6522 29.7092 74.1973 29.0526C73.9646 28.7044 73.7817 28.3158 73.6484 27.8867C73.5151 27.4477 73.4469 27.0282 73.4439 26.6283C73.4362 25.6083 73.6095 24.722 73.9638 23.9693C74.3281 23.2065 74.8336 22.6126 75.4804 22.1877C75.8487 21.965 76.2873 21.7716 76.7961 21.6078C77.3148 21.4439 77.7542 21.3605 78.1142 21.3578ZM75.0339 26.6162C75.0378 27.1362 75.1665 27.6203 75.4198 28.0684C75.6832 28.5064 76.0308 28.8538 76.4628 29.1105C76.9047 29.3672 77.3857 29.4936 77.9057 29.4896C78.9756 29.4815 79.7886 29.2054 80.3445 28.6612C80.9104 28.1169 81.1896 27.3547 81.1822 26.3748C81.1765 25.6148 81.0869 25.0155 80.9136 24.5768C80.7403 24.1381 80.4323 23.7454 79.9897 23.3987C79.7482 23.2005 79.4871 23.0625 79.2065 22.9846C78.9359 22.8967 78.6155 22.8541 78.2455 22.8569C77.6056 22.8617 77.0418 23.026 76.5542 23.3497C76.0667 23.6734 75.69 24.1212 75.4243 24.6932C75.1587 25.2653 75.0285 25.9063 75.0339 26.6162ZM96.5385 21.2786C96.6785 21.2775 96.8492 21.3713 97.0506 21.5597C97.262 21.7381 97.3681 21.8923 97.3691 22.0223C97.3737 22.6323 97.36 23.4675 97.3281 24.5277C97.32 24.7878 97.3124 25.1029 97.3052 25.4729C97.2979 25.833 97.2961 26.253 97.2997 26.733C97.3058 27.533 97.3209 28.2079 97.345 28.7577C97.3791 29.2975 97.4425 29.742 97.5351 30.0913C97.5269 30.3314 97.4332 30.5071 97.2541 30.6185C97.0748 30.7198 96.8902 30.7712 96.7002 30.7726C96.3102 30.7756 96.0592 30.6425 95.9472 30.3733C95.8452 30.1041 95.7921 29.6995 95.788 29.1595C95.7714 26.9596 95.783 25.1844 95.8228 23.8341C95.5947 24.0858 95.3768 24.3725 95.1693 24.694C94.9617 25.0156 94.7049 25.4376 94.3988 25.9599C94.0039 26.6329 93.6827 27.1453 93.4354 27.4972C93.3066 27.6582 93.1924 27.7691 93.0929 27.8298C92.9933 27.8906 92.8436 27.9217 92.6436 27.9232C92.3936 27.9251 92.1981 27.8666 92.0572 27.7476C91.9263 27.6286 91.7699 27.4348 91.5878 27.1662C91.3249 26.7781 90.9098 26.1063 90.3426 25.1505L89.5377 23.8516C89.5501 25.4915 89.5903 26.8363 89.6582 27.8858C89.7131 28.5354 89.7433 29.2202 89.7487 29.9401C89.7506 30.1801 89.6871 30.3856 89.5584 30.5566C89.4396 30.7175 89.2552 30.7989 89.0052 30.8008C88.7352 30.8028 88.5199 30.7545 88.3591 30.6557C88.2084 30.5568 88.1272 30.4074 88.1157 30.2075C88.1244 30.0374 88.1273 29.7574 88.1244 29.3674C88.1145 28.0574 88.0852 26.8376 88.0367 25.708L87.9988 24.6582C87.9864 24.3483 87.9737 23.9884 87.9606 23.5785C87.9474 23.1586 87.939 22.7036 87.9353 22.2136C87.9308 21.6136 88.2535 21.3112 88.9035 21.3063C89.1035 21.3048 89.3038 21.3533 89.5046 21.4518C89.7153 21.5502 89.8714 21.694 89.9729 21.8832C90.1456 22.2419 90.5508 22.9289 91.1885 23.9441C91.8261 24.9493 92.3016 25.6807 92.6151 26.1384C92.823 25.8668 93.0109 25.5854 93.1787 25.2941C93.3565 25.0027 93.5046 24.7516 93.623 24.5407C93.9885 23.9379 94.3842 23.3699 94.8102 22.8367C95.1372 22.4342 95.4044 22.0622 95.6118 21.7206C95.7109 21.5999 95.8401 21.4989 95.9995 21.4177C96.1688 21.3264 96.3485 21.28 96.5385 21.2786ZM105.839 28.6485C106.029 28.6471 106.169 28.721 106.26 28.8704C106.361 29.0096 106.412 29.1642 106.414 29.3342C106.415 29.5442 106.381 29.6945 106.312 29.785C106.253 29.8654 106.133 29.9513 105.954 30.0427C105.536 30.2459 105.017 30.4098 104.398 30.5345C103.779 30.6592 103.114 30.7242 102.404 30.7295C101.514 30.7363 100.858 30.5912 100.436 30.2944C100.024 29.9975 99.7659 29.6394 99.6627 29.2202C99.5694 28.7909 99.5202 28.2313 99.515 27.5413C99.5094 26.8013 99.5339 26.0761 99.5886 25.3657C99.6431 24.6452 99.7412 23.7295 99.8828 22.6184C99.9492 22.1378 100.137 21.7914 100.445 21.5791C100.753 21.3567 101.092 21.2442 101.462 21.2414C101.772 21.239 102.277 21.2252 102.977 21.1999L104.282 21.1751C104.822 21.171 105.212 21.1831 105.452 21.2112C105.753 21.269 105.973 21.3373 106.114 21.4162C106.264 21.4851 106.34 21.6095 106.342 21.7895C106.343 21.9895 106.275 22.1851 106.136 22.3761C106.008 22.5671 105.808 22.6636 105.538 22.6656C105.228 22.668 104.783 22.6513 104.203 22.6157C103.623 22.5801 103.187 22.5634 102.897 22.5656C102.647 22.5675 102.403 22.5843 102.163 22.6161C101.883 22.6382 101.683 22.6748 101.564 22.7257C101.444 22.7766 101.375 22.8621 101.356 22.9822C101.223 24.0133 101.159 24.7738 101.163 25.2638C101.393 25.292 101.618 25.3053 101.838 25.3037C102.118 25.3015 102.418 25.2843 102.738 25.2519C103.058 25.2194 103.262 25.1979 103.352 25.1872C103.882 25.1332 104.337 25.1048 104.717 25.1019C104.937 25.1002 105.102 25.139 105.213 25.2182C105.333 25.2973 105.394 25.4068 105.395 25.5468C105.397 25.7668 105.338 25.9372 105.219 26.0581C105.11 26.179 104.911 26.2705 104.621 26.3327C104.272 26.4053 103.837 26.4636 103.317 26.5075C102.808 26.5514 102.308 26.5752 101.818 26.5789C101.648 26.5801 101.413 26.5719 101.113 26.5542C101.087 27.1644 101.076 27.7295 101.08 28.2495C101.086 28.9595 101.558 29.3109 102.498 29.3038C102.998 29.3 103.413 29.2619 103.743 29.1894C104.072 29.1169 104.451 29.014 104.88 28.8808C105.279 28.7278 105.599 28.6503 105.839 28.6485ZM108.673 21.1419C108.863 21.1405 109.034 21.1892 109.184 21.288C109.345 21.3868 109.441 21.5611 109.473 21.8109C109.599 22.5999 109.68 23.3894 109.716 24.1791C109.762 24.9588 109.789 25.8436 109.796 26.8336C109.799 27.2536 109.77 28.0188 109.709 29.1293C110.149 29.166 110.489 29.1834 110.729 29.1816C110.899 29.1803 111.284 29.1524 111.883 29.0979C112.233 29.0452 112.538 29.0179 112.798 29.016C113.038 29.0141 113.258 29.0375 113.458 29.086C113.659 29.1245 113.864 29.1929 114.075 29.2913C114.286 29.4097 114.392 29.5939 114.394 29.8439C114.396 30.0439 114.332 30.2244 114.203 30.3854C114.084 30.5463 113.94 30.6274 113.77 30.6287C113.65 30.6296 113.46 30.611 113.2 30.573C112.729 30.5065 112.279 30.4749 111.849 30.4782C111.709 30.4792 111.549 30.4904 111.369 30.5118C111.199 30.5231 111.074 30.529 110.994 30.5296C110.755 30.5614 110.515 30.5783 110.275 30.5801C109.785 30.5838 109.344 30.5621 108.954 30.515C108.754 30.4966 108.553 30.4231 108.352 30.2946C108.151 30.1561 108.05 29.9569 108.048 29.6969C108.047 29.5469 108.064 29.1617 108.099 28.5414C108.161 27.5109 108.19 26.7257 108.186 26.1857C108.183 25.7657 108.16 25.3259 108.116 24.8662C108.073 24.4065 108.046 24.1167 108.035 23.9968C107.938 23.1475 107.888 22.4479 107.884 21.8979C107.882 21.6379 107.941 21.4474 108.06 21.3265C108.189 21.2056 108.393 21.144 108.673 21.1419Z" fill="#FDD567"/>
<path d="M26.5493 20.7L29.1129 16.35L26.5493 12H21.4507L18.8871 16.35L21.4507 20.7H26.5493ZM21.4507 22.15L18.8871 26.5L21.4507 30.85H26.5493L29.1129 26.5L26.5493 22.15H21.4507ZM30.3377 25.7895H35.4507L38 21.4395L35.4507 17.0895H30.3377L27.7742 21.4395L30.3377 25.7895ZM35.4507 27.2395H30.3377L27.7742 31.5895L30.3377 35.9395H35.4507L38 31.5895L35.4507 27.2395ZM17.6623 25.7895L20.2258 21.4395L17.6623 17.0895H12.5493L10 21.4395L12.5493 25.7895H17.6623ZM17.6623 27.2395H12.5493L10 31.5895L12.5493 35.9395H17.6623L20.2258 31.5895L17.6623 27.2395ZM21.4507 32.3L18.8871 36.65L21.4507 41H26.5493L29.1129 36.65L26.5493 32.3H21.4507Z" stroke="#FDD567"/>
</svg>
