<svg width="128" height="50" viewBox="0 0 128 50" fill="none" xmlns="http://www.w3.org/2000/svg">
<rect x="0.5" y="0.5" width="126.095" height="48.4464" rx="4.5" stroke="#FDD567"/>
<path d="M111.367 5.01264C110.818 5.09352 110.377 5.43011 110.133 5.88171L110.127 5.89405L110.119 5.9107C110.116 5.91576 110.113 5.92132 110.11 5.92736L108.934 8.22971C108.39 8.50615 107.931 8.92496 107.606 9.44155C107.507 9.46199 107.411 9.4885 107.318 9.5211L107.312 9.48153C107.243 9.07473 106.957 8.75022 106.564 8.62992L106.289 8.53165C106.265 8.52463 106.241 8.52235 106.216 8.52492C106.191 8.52749 106.168 8.53487 106.146 8.54664C106.124 8.5584 106.105 8.57432 106.09 8.59349C106.074 8.61265 106.063 8.63469 106.056 8.65834C106.048 8.68199 106.046 8.70679 106.049 8.73132C106.051 8.75586 106.059 8.77964 106.07 8.80132C106.082 8.823 106.098 8.84215 106.117 8.85768C106.137 8.87321 106.159 8.88481 106.182 8.89182L106.454 8.99071C106.71 9.06928 106.898 9.2811 106.942 9.54367L106.965 9.68161C106.564 9.91045 106.244 10.257 106.046 10.6744C105.849 11.0917 105.785 11.5596 105.863 12.0146C106.064 13.2102 107.17 14.0326 108.358 13.8752C108.804 14.231 109.333 14.4679 109.896 14.5637L109.907 14.6317C109.939 14.8203 109.896 15.0139 109.785 15.1695L109.585 15.4502C109.496 15.5755 109.525 15.753 109.651 15.8422C109.716 15.8884 109.79 15.9025 109.86 15.8907C109.931 15.8788 109.997 15.8412 110.043 15.7764L110.243 15.4956C110.425 15.2386 110.506 14.924 110.472 14.6109C110.624 14.6103 110.776 14.5994 110.926 14.5784L112.339 14.3409C112.415 14.6302 112.586 14.8827 112.835 15.0599L113.116 15.2599C113.181 15.3061 113.255 15.3202 113.326 15.3083C113.396 15.2965 113.462 15.2588 113.508 15.194C113.597 15.0688 113.567 14.8913 113.442 14.802L113.161 14.6021C113.038 14.5146 112.946 14.3902 112.898 14.247L113.118 14.21C113.365 14.1686 113.605 14.0965 113.834 13.9954C113.903 14.1221 114.009 14.2242 114.139 14.2875C114.268 14.3507 114.414 14.3718 114.556 14.3479L115.1 14.2566C115.251 14.2311 115.355 14.0805 115.33 13.9289C115.304 13.7773 115.157 13.6727 115.006 13.6981L114.462 13.7895C114.435 13.7941 114.407 13.7898 114.382 13.7771C114.358 13.7644 114.338 13.7441 114.326 13.7192C114.797 13.3941 115.164 12.9412 115.386 12.414L116.38 10.4164L116.692 10.2928C116.795 10.2489 116.77 10.0973 116.659 10.0931L116.323 10.0784L114.731 8.51537C114.289 8.02255 113.696 7.68976 113.046 7.56885C113.271 7.20822 113.351 6.7755 113.27 6.35799C113.1 5.47787 112.254 4.87853 111.367 5.01227M113.289 13.3995C113.192 13.4295 113.094 13.4529 112.994 13.4697L112.068 13.6253L111.199 8.45526L112.125 8.29965C112.226 8.2827 112.327 8.27262 112.427 8.2694L113.289 13.3995ZM114.905 11.6982L114.51 9.3488L115.56 10.3804L114.905 11.6982ZM108.758 13.2328C108.814 13.131 108.833 13.0134 108.814 12.899L108.362 10.2104C108.342 10.0902 108.282 9.98705 108.198 9.91256C108.469 9.44891 108.877 9.07981 109.365 8.85512L110.204 13.8484C109.67 13.7957 109.166 13.5808 108.758 13.2328ZM107.566 12.1003C107.467 12.1168 107.367 12.0936 107.286 12.0359C107.205 11.9782 107.15 11.8907 107.134 11.7926C107.117 11.6946 107.14 11.5939 107.198 11.5129C107.256 11.4319 107.343 11.3772 107.441 11.3607C107.539 11.3442 107.64 11.3674 107.721 11.4251C107.802 11.4828 107.857 11.5703 107.873 11.6683C107.89 11.7664 107.867 11.867 107.809 11.948C107.751 12.0291 107.664 12.0838 107.566 12.1003Z" fill="#FDD567"/>
<path d="M75.9874 34.4775C76.4736 34.2096 77.0288 34.2104 77.496 34.4226L77.5078 34.4291L77.5248 34.4371C77.5302 34.4394 77.5358 34.4421 77.5417 34.4452L79.871 35.5667C80.4715 35.4576 81.0903 35.5133 81.6616 35.728C81.7528 35.6844 81.8452 35.6475 81.9389 35.6172L81.9203 35.5817C81.7285 35.2164 81.7603 34.7847 82.0003 34.4512L82.1598 34.2065C82.1744 34.1866 82.1928 34.1698 82.2139 34.157C82.235 34.1442 82.2584 34.1357 82.2828 34.132C82.3071 34.1282 82.332 34.1293 82.356 34.1352C82.3799 34.141 82.4025 34.1515 82.4224 34.1661C82.4423 34.1807 82.4591 34.1991 82.4719 34.2202C82.4847 34.2413 82.4932 34.2647 82.497 34.289C82.5007 34.3134 82.4996 34.3383 82.4938 34.3623C82.4879 34.3862 82.4774 34.4088 82.4628 34.4287L82.3066 34.6716C82.1498 34.8894 82.1286 35.1716 82.2523 35.4074L82.3173 35.5312C82.7749 35.4709 83.24 35.5527 83.6495 35.7657C84.0591 35.9786 84.3932 36.3124 84.6066 36.7217C85.17 37.7951 84.7865 39.1196 83.7457 39.713C83.6057 40.2662 83.3278 40.7749 82.9378 41.1916L82.9699 41.2527C83.0588 41.422 83.2106 41.5498 83.3929 41.6066L83.722 41.7092C83.8688 41.7549 83.9525 41.9143 83.9067 42.0611C83.883 42.1371 83.8322 42.1934 83.7691 42.2266C83.706 42.2597 83.6307 42.2695 83.5547 42.2459L83.2256 42.1433C82.9253 42.0488 82.6698 41.8477 82.5075 41.578C82.3863 41.6693 82.2591 41.7523 82.1267 41.8265L80.8577 42.4926C80.9728 42.7685 80.9889 43.0734 80.898 43.3651L80.7955 43.6942C80.7718 43.7701 80.721 43.8265 80.6579 43.8596C80.5948 43.8927 80.5195 43.9026 80.4435 43.8789C80.2967 43.8332 80.2131 43.6738 80.2588 43.527L80.3613 43.1978C80.4064 43.0537 80.4046 42.899 80.356 42.756L80.1584 42.8597C79.9369 42.976 79.7018 43.0641 79.4584 43.1221C79.4806 43.2644 79.4577 43.4101 79.3929 43.5387C79.3281 43.6673 79.2247 43.7725 79.0972 43.8394L78.6091 44.0956C78.4729 44.167 78.299 44.1101 78.2276 43.9739C78.1561 43.8378 78.2098 43.6657 78.3459 43.5942L78.834 43.338C78.8585 43.3252 78.8782 43.3048 78.89 43.2798C78.9019 43.2549 78.9054 43.2267 78.8999 43.1997C78.3285 43.2256 77.7616 43.0876 77.266 42.802L75.2662 41.8128L74.9427 41.9034C74.8342 41.9307 74.7628 41.7946 74.8486 41.7241L75.1069 41.5093L75.4287 39.3016C75.4824 38.6418 75.7528 38.0183 76.1979 37.5282C75.8001 37.3775 75.4744 37.0816 75.2863 36.7001C74.8897 35.8961 75.2006 34.907 75.9872 34.4772M79.5318 42.3178C79.627 42.2831 79.7198 42.2421 79.8095 42.1949L80.6409 41.7585L78.2044 37.1166L77.373 37.553C77.2825 37.6005 77.1962 37.6535 77.1141 37.7118L79.5318 42.3178ZM77.2163 41.9408L76.1091 39.8313L75.8971 41.2881L77.2163 41.9408ZM83.0387 39.4433C82.9327 39.3961 82.8458 39.3143 82.7921 39.2114L81.5251 36.7975C81.4684 36.6896 81.454 36.571 81.4758 36.4608C80.979 36.2561 80.4312 36.2087 79.9066 36.3252L82.2598 40.8084C82.6528 40.4436 82.9246 39.9672 83.0387 39.4433ZM83.3028 37.8202C83.3908 37.774 83.4569 37.6947 83.4865 37.5997C83.5161 37.5048 83.5067 37.402 83.4605 37.3139C83.4143 37.2258 83.335 37.1597 83.24 37.1302C83.1451 37.1006 83.0423 37.1099 82.9542 37.1561C82.8661 37.2024 82.8 37.2817 82.7705 37.3766C82.7409 37.4716 82.7502 37.5744 82.7964 37.6625C82.8427 37.7505 82.922 37.8166 83.0169 37.8462C83.1119 37.8758 83.2147 37.8664 83.3028 37.8202Z" fill="#FDD567"/>
<path d="M43.0606 21.678C43.2106 21.858 43.3156 22.003 43.3756 22.113C43.4356 22.223 43.4656 22.328 43.4656 22.428C43.4656 22.548 43.3856 22.688 43.2256 22.848C43.0756 23.008 42.9256 23.088 42.7756 23.088C42.5756 23.088 42.4156 23.058 42.2956 22.998C42.1756 22.938 42.0756 22.843 41.9956 22.713C41.8356 22.473 41.6406 22.268 41.4106 22.098C41.1806 21.918 40.8206 21.828 40.3306 21.828C39.9106 21.828 39.4306 21.923 38.8906 22.113C38.3606 22.303 37.9806 22.538 37.7506 22.818C37.5506 23.068 37.3756 23.448 37.2256 23.958C37.0856 24.468 37.0156 24.963 37.0156 25.443C37.0156 26.023 37.1406 26.558 37.3906 27.048C37.6506 27.528 38.0206 27.913 38.5006 28.203C38.9906 28.493 39.5756 28.638 40.2556 28.638C40.6256 28.638 41.0056 28.568 41.3956 28.428C41.7956 28.278 42.1406 28.038 42.4306 27.708H42.4156C42.5956 27.518 42.8206 27.423 43.0906 27.423C43.2506 27.423 43.4006 27.493 43.5406 27.633C43.6906 27.773 43.7656 27.913 43.7656 28.053C43.7656 28.203 43.7406 28.338 43.6906 28.458C43.6506 28.568 43.5706 28.693 43.4506 28.833C43.0406 29.293 42.5556 29.608 41.9956 29.778C41.4356 29.948 40.7656 30.033 39.9856 30.033C39.2956 30.033 38.5956 29.868 37.8856 29.538C37.1856 29.208 36.6456 28.808 36.2656 28.338C36.0656 28.048 35.8706 27.633 35.6806 27.093C35.5006 26.543 35.4106 26.098 35.4106 25.758C35.4106 24.888 35.5406 24.063 35.8006 23.283C36.0706 22.493 36.4706 21.863 37.0006 21.393C37.3506 21.073 37.8556 20.833 38.5156 20.673C39.1756 20.513 39.7806 20.433 40.3306 20.433C41.0006 20.433 41.5256 20.528 41.9056 20.718C42.2956 20.898 42.6806 21.218 43.0606 21.678ZM47.7943 21.723C47.7643 22.363 47.7493 22.978 47.7493 23.568C47.7493 24.178 47.7893 25.073 47.8693 26.253C47.8793 26.433 47.8993 26.798 47.9293 27.348C47.9593 27.888 47.9743 28.383 47.9743 28.833C48.0743 28.823 48.1793 28.808 48.2893 28.788C48.4093 28.768 48.4993 28.758 48.5593 28.758C48.7793 28.758 48.9543 28.813 49.0843 28.923C49.2143 29.033 49.2793 29.203 49.2793 29.433C49.2793 29.583 49.2193 29.698 49.0993 29.778C48.9793 29.858 48.7693 29.918 48.4693 29.958C48.1793 29.988 47.7543 30.003 47.1943 30.003C46.5743 30.003 46.1093 29.983 45.7993 29.943C45.4893 29.903 45.2743 29.828 45.1543 29.718C45.0343 29.598 44.9743 29.423 44.9743 29.193C44.9743 29.023 45.0293 28.908 45.1393 28.848C45.2493 28.788 45.4043 28.758 45.6043 28.758L45.9193 28.773L46.4143 28.803L46.3393 27.033C46.2793 26.073 46.2493 25.193 46.2493 24.393C46.2493 23.963 46.2643 23.373 46.2943 22.623L46.3243 21.798C45.9843 21.818 45.7193 21.828 45.5293 21.828C45.3093 21.828 45.1593 21.788 45.0793 21.708C45.0093 21.628 44.9743 21.463 44.9743 21.213C44.9743 20.933 45.1643 20.753 45.5443 20.673C45.9343 20.593 46.5243 20.553 47.3143 20.553C47.9243 20.553 48.3793 20.573 48.6793 20.613C48.9893 20.653 49.1443 20.743 49.1443 20.883C49.1443 21.223 49.0693 21.448 48.9193 21.558C48.7793 21.658 48.5043 21.708 48.0943 21.708L47.7943 21.723ZM57.815 29.778C57.685 29.608 57.575 29.423 57.485 29.223C57.395 29.013 57.3 28.763 57.2 28.473C57.18 28.423 57.12 28.273 57.02 28.023C56.93 27.773 56.825 27.558 56.705 27.378C56.075 27.468 55.56 27.513 55.16 27.513C54.94 27.513 54.695 27.508 54.425 27.498C54.165 27.478 53.97 27.468 53.84 27.468C53.34 27.428 52.94 27.408 52.64 27.408C52.52 27.568 52.415 27.738 52.325 27.918C52.245 28.098 52.14 28.368 52.01 28.728C51.83 29.248 51.675 29.618 51.545 29.838C51.455 29.988 51.28 30.063 51.02 30.063C50.8 30.063 50.595 30.018 50.405 29.928C50.225 29.828 50.135 29.693 50.135 29.523C50.215 29.143 50.34 28.743 50.51 28.323C50.69 27.893 50.945 27.323 51.275 26.613L51.875 25.143C52.205 24.303 52.505 23.583 52.775 22.983C53.055 22.383 53.42 21.673 53.87 20.853C53.93 20.733 54.03 20.633 54.17 20.553C54.31 20.463 54.465 20.418 54.635 20.418C54.825 20.418 54.96 20.433 55.04 20.463C55.13 20.483 55.2 20.523 55.25 20.583C55.3 20.633 55.375 20.743 55.475 20.913C55.815 21.443 56.105 21.988 56.345 22.548C56.595 23.108 56.91 23.883 57.29 24.873L57.605 25.668C57.885 26.388 58.125 26.993 58.325 27.483C58.535 27.963 58.765 28.403 59.015 28.803C59.175 29.063 59.255 29.243 59.255 29.343C59.255 29.583 59.18 29.768 59.03 29.898C58.89 30.018 58.705 30.078 58.475 30.078C58.185 30.078 57.965 29.978 57.815 29.778ZM56.27 26.148C56.11 25.808 55.88 25.218 55.58 24.378C55.27 23.478 54.96 22.763 54.65 22.233C54.46 22.713 54.18 23.333 53.81 24.093C53.56 24.563 53.275 25.243 52.955 26.133C53.595 26.213 54.285 26.253 55.025 26.253C55.555 26.253 55.97 26.218 56.27 26.148ZM64.0739 29.298C64.0739 28.968 64.0939 28.603 64.1339 28.203C64.1739 27.743 64.1939 27.163 64.1939 26.463C64.1939 25.183 64.1389 23.948 64.0289 22.758C63.9689 22.018 63.9389 21.493 63.9389 21.183C63.9389 20.973 64.0439 20.798 64.2539 20.658C64.4639 20.508 64.6789 20.433 64.8989 20.433C65.0389 20.433 65.2089 20.443 65.4089 20.463C65.6089 20.483 65.7539 20.493 65.8439 20.493C68.0939 20.493 69.7489 21.098 70.8089 22.308C71.4789 23.088 71.8139 24.123 71.8139 25.413C71.8139 25.953 71.7139 26.498 71.5139 27.048C71.3239 27.588 71.0489 28.028 70.6889 28.368C70.2989 28.748 69.9289 29.053 69.5789 29.283C69.2389 29.503 68.7739 29.688 68.1839 29.838C67.6039 29.988 66.8589 30.063 65.9489 30.063C65.3689 30.063 64.9089 29.998 64.5689 29.868C64.2389 29.738 64.0739 29.548 64.0739 29.298ZM66.5189 28.698C67.1889 28.698 67.8039 28.578 68.3639 28.338C68.9239 28.088 69.3739 27.718 69.7139 27.228C70.0539 26.728 70.2239 26.118 70.2239 25.398C70.2239 24.688 70.1239 24.098 69.9239 23.628C69.7239 23.148 69.3789 22.758 68.8889 22.458C68.5189 22.228 68.0639 22.063 67.5239 21.963C66.9839 21.853 66.3339 21.798 65.5739 21.798C65.5739 21.898 65.5839 22.128 65.6039 22.488C65.6239 22.828 65.6339 23.113 65.6339 23.343L65.6489 23.673C65.7089 24.713 65.7389 25.538 65.7389 26.148C65.7389 27.108 65.6839 27.938 65.5739 28.638C65.8139 28.678 66.1289 28.698 66.5189 28.698ZM77.811 20.463C78.451 20.463 79.001 20.543 79.461 20.703C79.931 20.863 80.346 21.108 80.706 21.438C81.336 22.008 81.776 22.633 82.026 23.313C82.286 23.983 82.416 24.843 82.416 25.893C82.416 26.153 82.381 26.398 82.311 26.628C82.241 26.848 82.136 27.118 81.996 27.438L81.801 27.918C81.661 28.298 81.371 28.653 80.931 28.983C80.491 29.303 79.996 29.558 79.446 29.748C78.896 29.938 78.396 30.033 77.946 30.033C77.026 30.033 76.221 29.883 75.531 29.583C74.851 29.273 74.286 28.788 73.836 28.128C73.606 27.778 73.426 27.388 73.296 26.958C73.166 26.518 73.101 26.098 73.101 25.698C73.101 24.678 73.281 23.793 73.641 23.043C74.011 22.283 74.521 21.693 75.171 21.273C75.541 21.053 75.981 20.863 76.491 20.703C77.011 20.543 77.451 20.463 77.811 20.463ZM74.691 25.698C74.691 26.218 74.816 26.703 75.066 27.153C75.326 27.593 75.671 27.943 76.101 28.203C76.541 28.463 77.021 28.593 77.541 28.593C78.611 28.593 79.426 28.323 79.986 27.783C80.556 27.243 80.841 26.483 80.841 25.503C80.841 24.743 80.756 24.143 80.586 23.703C80.416 23.263 80.111 22.868 79.671 22.518C79.431 22.318 79.171 22.178 78.891 22.098C78.621 22.008 78.301 21.963 77.931 21.963C77.291 21.963 76.726 22.123 76.236 22.443C75.746 22.763 75.366 23.208 75.096 23.778C74.826 24.348 74.691 24.988 74.691 25.698ZM96.2354 20.523C96.3754 20.523 96.5454 20.618 96.7454 20.808C96.9554 20.988 97.0604 21.143 97.0604 21.273C97.0604 21.883 97.0404 22.718 97.0004 23.778C96.9904 24.038 96.9804 24.353 96.9704 24.723C96.9604 25.083 96.9554 25.503 96.9554 25.983C96.9554 26.783 96.9654 27.458 96.9854 28.008C97.0154 28.548 97.0754 28.993 97.1654 29.343C97.1554 29.583 97.0604 29.758 96.8804 29.868C96.7004 29.968 96.5154 30.018 96.3254 30.018C95.9354 30.018 95.6854 29.883 95.5754 29.613C95.4754 29.343 95.4254 28.938 95.4254 28.398C95.4254 26.198 95.4504 24.423 95.5004 23.073C95.2704 23.323 95.0504 23.608 94.8404 23.928C94.6304 24.248 94.3704 24.668 94.0604 25.188C93.6604 25.858 93.3354 26.368 93.0854 26.718C92.9554 26.878 92.8404 26.988 92.7404 27.048C92.6404 27.108 92.4904 27.138 92.2904 27.138C92.0404 27.138 91.8454 27.078 91.7054 26.958C91.5754 26.838 91.4204 26.643 91.2404 26.373C90.9804 25.983 90.5704 25.308 90.0104 24.348L89.2154 23.043C89.2154 24.683 89.2454 26.028 89.3054 27.078C89.3554 27.728 89.3804 28.413 89.3804 29.133C89.3804 29.373 89.3154 29.578 89.1854 29.748C89.0654 29.908 88.8804 29.988 88.6304 29.988C88.3604 29.988 88.1454 29.938 87.9854 29.838C87.8354 29.738 87.7554 29.588 87.7454 29.388C87.7554 29.218 87.7604 28.938 87.7604 28.548C87.7604 27.238 87.7404 26.018 87.7004 24.888L87.6704 23.838C87.6604 23.528 87.6504 23.168 87.6404 22.758C87.6304 22.338 87.6254 21.883 87.6254 21.393C87.6254 20.793 87.9504 20.493 88.6004 20.493C88.8004 20.493 89.0004 20.543 89.2004 20.643C89.4104 20.743 89.5654 20.888 89.6654 21.078C89.8354 21.438 90.2354 22.128 90.8654 23.148C91.4954 24.158 91.9654 24.893 92.2754 25.353C92.4854 25.083 92.6754 24.803 92.8454 24.513C93.0254 24.223 93.1754 23.973 93.2954 23.763C93.6654 23.163 94.0654 22.598 94.4954 22.068C94.8254 21.668 95.0954 21.298 95.3054 20.958C95.4054 20.838 95.5354 20.738 95.6954 20.658C95.8654 20.568 96.0454 20.523 96.2354 20.523ZM105.479 27.963C105.669 27.963 105.809 28.038 105.899 28.188C105.999 28.328 106.049 28.483 106.049 28.653C106.049 28.863 106.014 29.013 105.944 29.103C105.884 29.183 105.764 29.268 105.584 29.358C105.164 29.558 104.644 29.718 104.024 29.838C103.404 29.958 102.739 30.018 102.029 30.018C101.139 30.018 100.484 29.868 100.064 29.568C99.6545 29.268 99.3995 28.908 99.2995 28.488C99.2095 28.058 99.1645 27.498 99.1645 26.808C99.1645 26.068 99.1945 25.343 99.2545 24.633C99.3145 23.913 99.4195 22.998 99.5695 21.888C99.6395 21.408 99.8295 21.063 100.139 20.853C100.449 20.633 100.789 20.523 101.159 20.523C101.469 20.523 101.974 20.513 102.674 20.493L103.979 20.478C104.519 20.478 104.909 20.493 105.149 20.523C105.449 20.583 105.669 20.653 105.809 20.733C105.959 20.803 106.034 20.928 106.034 21.108C106.034 21.308 105.964 21.503 105.824 21.693C105.694 21.883 105.494 21.978 105.224 21.978C104.914 21.978 104.469 21.958 103.889 21.918C103.309 21.878 102.874 21.858 102.584 21.858C102.334 21.858 102.089 21.873 101.849 21.903C101.569 21.923 101.369 21.958 101.249 22.008C101.129 22.058 101.059 22.143 101.039 22.263C100.899 23.293 100.829 24.053 100.829 24.543C101.059 24.573 101.284 24.588 101.504 24.588C101.784 24.588 102.084 24.573 102.404 24.543C102.724 24.513 102.929 24.493 103.019 24.483C103.549 24.433 104.004 24.408 104.384 24.408C104.604 24.408 104.769 24.448 104.879 24.528C104.999 24.608 105.059 24.718 105.059 24.858C105.059 25.078 104.999 25.248 104.879 25.368C104.769 25.488 104.569 25.578 104.279 25.638C103.929 25.708 103.494 25.763 102.974 25.803C102.464 25.843 101.964 25.863 101.474 25.863C101.304 25.863 101.069 25.853 100.769 25.833C100.739 26.443 100.724 27.008 100.724 27.528C100.724 28.238 101.194 28.593 102.134 28.593C102.634 28.593 103.049 28.558 103.379 28.488C103.709 28.418 104.089 28.318 104.519 28.188C104.919 28.038 105.239 27.963 105.479 27.963ZM108.371 20.478C108.561 20.478 108.731 20.528 108.881 20.628C109.041 20.728 109.136 20.903 109.166 21.153C109.286 21.943 109.361 22.733 109.391 23.523C109.431 24.303 109.451 25.188 109.451 26.178C109.451 26.598 109.416 27.363 109.346 28.473C109.786 28.513 110.126 28.533 110.366 28.533C110.536 28.533 110.921 28.508 111.521 28.458C111.871 28.408 112.176 28.383 112.436 28.383C112.676 28.383 112.896 28.408 113.096 28.458C113.296 28.498 113.501 28.568 113.711 28.668C113.921 28.788 114.026 28.973 114.026 29.223C114.026 29.423 113.961 29.603 113.831 29.763C113.711 29.923 113.566 30.003 113.396 30.003C113.276 30.003 113.086 29.983 112.826 29.943C112.356 29.873 111.906 29.838 111.476 29.838C111.336 29.838 111.176 29.848 110.996 29.868C110.826 29.878 110.701 29.883 110.621 29.883C110.381 29.913 110.141 29.928 109.901 29.928C109.411 29.928 108.971 29.903 108.581 29.853C108.381 29.833 108.181 29.758 107.981 29.628C107.781 29.488 107.681 29.288 107.681 29.028C107.681 28.878 107.701 28.493 107.741 27.873C107.811 26.843 107.846 26.058 107.846 25.518C107.846 25.098 107.826 24.658 107.786 24.198C107.746 23.738 107.721 23.448 107.711 23.328C107.621 22.478 107.576 21.778 107.576 21.228C107.576 20.968 107.636 20.778 107.756 20.658C107.886 20.538 108.091 20.478 108.371 20.478Z" fill="#FDD567"/>
<path d="M26.2108 19.8163L28.7743 15.4663L26.2108 11.1163H21.1121L18.5485 15.4663L21.1121 19.8163H26.2108ZM21.1121 21.2663L18.5485 25.6163L21.1121 29.9663H26.2108L28.7743 25.6163L26.2108 21.2663H21.1121ZM29.9992 24.9058H35.1121L37.6614 20.5558L35.1121 16.2058H29.9992L27.4356 20.5558L29.9992 24.9058ZM35.1121 26.3558H29.9992L27.4356 30.7058L29.9992 35.0558H35.1121L37.6614 30.7058L35.1121 26.3558ZM17.3237 24.9058L19.8873 20.5558L17.3237 16.2058H12.2108L9.66142 20.5558L12.2108 24.9058H17.3237ZM17.3237 26.3558H12.2108L9.66142 30.7058L12.2108 35.0558H17.3237L19.8873 30.7058L17.3237 26.3558ZM21.1121 31.4163L18.5485 35.7663L21.1121 40.1163H26.2108L28.7743 35.7663L26.2108 31.4163H21.1121Z" stroke="#FDD567"/>
</svg>
